# This file uses centimeters as units for non-parametric coordinates.

mtllib beu.mtl
g default
v -0.710510 0.449920 0.545674
v -0.710510 0.449920 -0.553560
v 0.710510 0.449920 -0.553560
v 0.710510 0.449920 0.545674
v -0.668903 0.861350 -0.527148
v -0.668903 0.486936 -0.527148
v 0.665974 0.486936 -0.527148
v 0.665974 0.861350 -0.527148
v -0.710510 1.183382 0.545674
v -0.710510 0.898547 0.545674
v 0.710510 0.898547 0.545674
v 0.710510 1.183382 0.545674
v 0.710510 0.898547 -0.553560
v -0.668903 0.861350 0.545674
v 0.665974 0.861350 0.545674
v 0.665974 0.486936 0.545674
v -0.710510 0.898547 -0.553560
v -0.710510 1.183382 -0.553560
v 0.710510 1.183382 -0.553560
v -0.668903 0.486936 0.545674
v 0.443623 0.057013 0.495001
v 0.443623 0.059507 -0.496345
v 0.443623 0.015827 -0.541544
v 0.443623 0.013333 0.545244
v 0.521272 0.057013 0.495001
v 0.521272 0.013333 0.545244
v 0.521272 0.013333 -0.541544
v 0.521272 0.057013 -0.496345
v 0.443623 0.406564 -0.496345
v 0.443623 0.457868 -0.541544
v 0.521272 0.404070 -0.496345
v 0.521272 0.404070 0.495001
v 0.521272 0.455374 0.545244
v 0.443623 0.404070 0.495001
v 0.443623 0.455374 0.545244
v 0.521272 0.455374 -0.541544
v 0.192946 0.965643 0.529256
v 0.164542 0.965643 0.529256
v 0.164542 0.995863 0.529256
v 0.192946 0.995863 0.529256
v 0.192946 0.965643 0.591351
v 0.164542 0.965643 0.565511
v 0.164542 0.995863 0.565511
v 0.192946 0.995863 0.591351
v -0.192568 0.965643 0.591351
v -0.164164 0.965643 0.565511
v -0.442751 0.057013 0.496342
v -0.442751 0.013333 0.542894
v -0.442751 0.013333 -0.541479
v -0.442751 0.057013 -0.497152
v -0.518514 0.057013 0.496342
v -0.518514 0.057013 -0.497152
v -0.518514 0.013333 -0.541479
v -0.518514 0.013333 0.542894
v -0.442751 0.455374 -0.541479
v -0.442751 0.407878 -0.497152
v -0.518514 0.407878 -0.497152
v -0.518514 0.455374 0.542894
v -0.518514 0.407878 0.496342
v -0.442751 0.407878 0.496342
v -0.442751 0.455374 0.542894
v -0.518514 0.455374 -0.541479
v -0.192568 0.965643 0.529256
v -0.192568 0.995863 0.529256
v -0.164164 0.995863 0.529256
v -0.164164 0.965643 0.529256
v -0.164164 0.995863 0.565511
v -0.192568 0.995863 0.591351
vt 0.160600 0.783700
vt 0.160600 0.549200
vt 0.460900 0.549200
vt 0.460900 0.783700
vt 0.694400 0.410400
vt 0.775900 0.410400
vt 0.775900 0.698400
vt 0.694400 0.698400
vt 0.160600 0.158900
vt 0.160600 0.098100
vt 0.460900 0.098100
vt 0.460900 0.158900
vt 0.521700 0.393400
vt 0.521700 0.158900
vt 0.616700 0.158900
vt 0.616700 0.393400
vt 0.472100 0.410400
vt 0.472100 0.698400
vt 0.998200 0.698400
vt 0.998200 0.779900
vt 0.775900 0.779900
vt 0.460900 0.454100
vt 0.160600 0.454100
vt 0.160600 0.393400
vt 0.460900 0.393400
vt 0.998200 0.410400
vt 0.004800 0.158900
vt 0.099800 0.158900
vt 0.099800 0.393400
vt 0.004800 0.393400
vt 0.775900 0.328900
vt 0.998200 0.328900
vt 0.454700 0.009900
vt 0.166800 0.009900
vt 0.160600 0.003000
vt 0.460900 0.003000
vt 0.166800 0.091500
vt 0.454700 0.091500
vt 0.465100 0.809700
vt 0.268000 0.809700
vt 0.259100 0.801000
vt 0.475100 0.801100
vt 0.037600 0.809400
vt 0.027600 0.800700
vt 0.243600 0.800500
vt 0.234700 0.809200
vt 0.465100 0.825200
vt 0.268000 0.825200
vt 0.268100 0.878700
vt 0.259100 0.888900
vt 0.219200 0.809700
vt 0.234700 0.878200
vt 0.219200 0.878700
vt 0.037600 0.878400
vt 0.027600 0.888600
vt 0.053000 0.809400
vt 0.053000 0.878400
vt 0.465100 0.878700
vt 0.475100 0.888900
vt 0.243600 0.888400
vt 0.268100 0.863300
vt 0.465100 0.863300
vt 0.012200 0.888600
vt 0.012200 0.800700
vt 0.066800 0.859900
vt 0.072400 0.859900
vt 0.072400 0.865900
vt 0.066700 0.865900
vt 0.066800 0.847600
vt 0.072400 0.852700
vt 0.079600 0.859900
vt 0.079600 0.865900
vt 0.072400 0.836400
vt 0.066800 0.841600
vt 0.066800 0.829200
vt 0.072400 0.829200
vt 0.054400 0.847600
vt 0.054400 0.841600
vt 0.143400 0.847600
vt 0.137700 0.852700
vt 0.235200 0.973700
vt 0.244500 0.982400
vt 0.029000 0.982400
vt 0.037800 0.973700
vt 0.268800 0.973700
vt 0.466300 0.973700
vt 0.475100 0.982400
vt 0.259600 0.982400
vt 0.466300 0.958700
vt 0.268800 0.958700
vt 0.029000 0.894600
vt 0.037800 0.904000
vt 0.052800 0.904000
vt 0.052800 0.973700
vt 0.259600 0.894600
vt 0.268800 0.904000
vt 0.220200 0.973700
vt 0.220200 0.904000
vt 0.235200 0.904000
vt 0.244500 0.894600
vt 0.475100 0.894600
vt 0.466300 0.904000
vt 0.466300 0.919100
vt 0.268800 0.919100
vt 0.013900 0.894600
vt 0.013900 0.982400
vt 0.143400 0.859900
vt 0.143400 0.865900
vt 0.137700 0.865900
vt 0.137700 0.859900
vt 0.137700 0.858700
vt 0.072400 0.858700
vt 0.130500 0.859900
vt 0.130500 0.865900
vt 0.137700 0.836400
vt 0.137700 0.829200
vt 0.143400 0.829200
vt 0.143400 0.841600
vt 0.155700 0.841600
vt 0.155700 0.847600
vn 0.000000 -1.000000 0.000000
vn 0.000000 -1.000000 0.000000
vn 0.000000 -1.000000 0.000000
vn 0.000000 -1.000000 0.000000
vn 0.000000 0.000000 1.000000
vn 0.000000 0.000000 1.000000
vn 0.000000 0.000000 1.000000
vn 0.000000 0.000000 1.000000
vn 0.000000 0.000000 1.000000
vn 0.000000 0.000000 1.000000
vn 0.000000 0.000000 1.000000
vn 0.000000 0.000000 1.000000
vn 1.000000 0.000000 0.000000
vn 1.000000 0.000000 0.000000
vn 1.000000 0.000000 0.000000
vn 1.000000 0.000000 0.000000
vn 0.000000 -1.000000 0.000000
vn 0.000000 -1.000000 0.000000
vn 0.000000 -1.000000 0.000000
vn 0.000000 -1.000000 0.000000
vn -1.000000 0.000000 -0.000000
vn -1.000000 0.000000 -0.000000
vn -1.000000 0.000000 -0.000000
vn -1.000000 0.000000 -0.000000
vn 0.000000 0.000000 -1.000000
vn 0.000000 0.000000 -1.000000
vn 0.000000 0.000000 -1.000000
vn 0.000000 0.000000 -1.000000
vn 0.000000 1.000000 0.000000
vn 0.000000 1.000000 0.000000
vn 0.000000 1.000000 0.000000
vn 0.000000 1.000000 0.000000
vn 0.000000 1.000000 0.000000
vn 0.000000 1.000000 0.000000
vn 0.000000 1.000000 0.000000
vn 0.000000 1.000000 0.000000
vn -1.000000 0.000000 -0.000000
vn -1.000000 0.000000 -0.000000
vn -1.000000 0.000000 -0.000000
vn -1.000000 0.000000 -0.000000
vn 1.000000 0.000000 0.000000
vn 1.000000 0.000000 0.000000
vn 1.000000 0.000000 0.000000
vn 1.000000 0.000000 0.000000
vn 0.000000 0.000000 1.000000
vn 0.000000 0.000000 1.000000
vn 0.000000 0.000000 1.000000
vn 0.000000 0.000000 1.000000
vn 1.000000 0.000000 0.000000
vn 1.000000 0.000000 0.000000
vn 1.000000 0.000000 0.000000
vn 1.000000 0.000000 0.000000
vn 0.000000 0.000000 -1.000000
vn 0.000000 0.000000 -1.000000
vn 0.000000 0.000000 -1.000000
vn 0.000000 0.000000 -1.000000
vn -1.000000 0.000000 -0.000000
vn -1.000000 0.000000 -0.000000
vn -1.000000 0.000000 -0.000000
vn -1.000000 0.000000 -0.000000
vn 0.000000 0.000000 1.000000
vn 0.000000 0.000000 1.000000
vn 0.000000 0.000000 1.000000
vn 0.000000 0.000000 1.000000
vn 0.000000 0.000000 1.000000
vn 0.000000 0.000000 1.000000
vn 0.000000 0.000000 1.000000
vn 0.000000 0.000000 1.000000
vn 0.000000 0.000000 1.000000
vn 0.000000 0.000000 1.000000
vn 0.000000 0.000000 1.000000
vn 0.000000 0.000000 1.000000
vn -1.000000 0.000000 -0.000000
vn -1.000000 0.000000 -0.000000
vn -1.000000 0.000000 -0.000000
vn -1.000000 0.000000 -0.000000
vn 1.000000 0.000000 0.000000
vn 1.000000 0.000000 0.000000
vn 1.000000 0.000000 0.000000
vn 1.000000 0.000000 0.000000
vn 0.016100 0.999870 0.001300
vn 0.016100 0.999870 0.001300
vn 0.016100 0.999870 0.001300
vn 0.016100 0.999870 0.001300
vn -1.000000 0.000000 -0.000000
vn -1.000000 0.000000 -0.000000
vn -1.000000 0.000000 -0.000000
vn -1.000000 0.000000 -0.000000
vn 0.000000 0.000000 1.000000
vn 0.000000 0.000000 1.000000
vn 0.000000 0.000000 1.000000
vn 0.000000 0.000000 1.000000
vn 1.000000 0.000000 0.000000
vn 1.000000 0.000000 0.000000
vn 1.000000 0.000000 0.000000
vn 1.000000 0.000000 0.000000
vn 0.000000 0.000000 -1.000000
vn 0.000000 0.000000 -1.000000
vn 0.000000 0.000000 -1.000000
vn 0.000000 0.000000 -1.000000
vn -1.000000 0.000000 -0.000000
vn -1.000000 0.000000 -0.000000
vn -1.000000 0.000000 -0.000000
vn -1.000000 0.000000 -0.000000
vn 1.000000 0.000000 0.000000
vn 1.000000 0.000000 0.000000
vn 1.000000 0.000000 0.000000
vn 1.000000 0.000000 0.000000
vn -0.016100 -0.999870 -0.001300
vn -0.016100 -0.999870 -0.001300
vn -0.016100 -0.999870 -0.001300
vn -0.016100 -0.999870 -0.001300
vn 1.000000 0.000000 0.000000
vn 1.000000 0.000000 0.000000
vn 1.000000 0.000000 0.000000
vn 1.000000 0.000000 0.000000
vn 0.000000 0.000000 -1.000000
vn 0.000000 0.000000 -1.000000
vn 0.000000 0.000000 -1.000000
vn 0.000000 0.000000 -1.000000
vn -1.000000 0.000000 -0.000000
vn -1.000000 0.000000 -0.000000
vn -1.000000 0.000000 -0.000000
vn -1.000000 0.000000 -0.000000
vn 0.000000 0.000000 1.000000
vn 0.000000 0.000000 1.000000
vn 0.000000 0.000000 1.000000
vn 0.000000 0.000000 1.000000
vn 0.000000 0.000000 -1.000000
vn 0.000000 0.000000 -1.000000
vn 0.000000 0.000000 -1.000000
vn 0.000000 0.000000 -1.000000
vn 0.000000 -1.000000 0.000000
vn 0.000000 -1.000000 0.000000
vn 0.000000 -1.000000 0.000000
vn 0.000000 -1.000000 0.000000
vn -1.000000 0.000000 -0.000000
vn -1.000000 0.000000 -0.000000
vn -1.000000 0.000000 -0.000000
vn -1.000000 0.000000 -0.000000
vn 0.000000 1.000000 0.000000
vn 0.000000 1.000000 0.000000
vn 0.000000 1.000000 0.000000
vn 0.000000 1.000000 0.000000
vn 1.000000 0.000000 0.000000
vn 1.000000 0.000000 0.000000
vn 1.000000 0.000000 0.000000
vn 1.000000 0.000000 0.000000
vn 0.000000 -1.000000 0.000000
vn 0.000000 -1.000000 0.000000
vn 0.000000 -1.000000 0.000000
vn 0.000000 -1.000000 0.000000
vn 1.000000 0.000000 0.000000
vn 1.000000 0.000000 0.000000
vn 1.000000 0.000000 0.000000
vn 1.000000 0.000000 0.000000
vn -1.000000 0.000000 -0.000000
vn -1.000000 0.000000 -0.000000
vn -1.000000 0.000000 -0.000000
vn -1.000000 0.000000 -0.000000
vn 0.000000 1.000000 0.000000
vn 0.000000 1.000000 0.000000
vn 0.000000 1.000000 0.000000
vn 0.000000 1.000000 0.000000
vn 1.000000 0.000000 0.000000
vn 1.000000 0.000000 0.000000
vn 1.000000 0.000000 0.000000
vn 1.000000 0.000000 0.000000
vn 0.000000 0.000000 1.000000
vn 0.000000 0.000000 1.000000
vn 0.000000 0.000000 1.000000
vn 0.000000 0.000000 1.000000
vn -1.000000 0.000000 -0.000000
vn -1.000000 0.000000 -0.000000
vn -1.000000 0.000000 -0.000000
vn -1.000000 0.000000 -0.000000
vn 0.000000 0.000000 -1.000000
vn 0.000000 0.000000 -1.000000
vn 0.000000 0.000000 -1.000000
vn 0.000000 0.000000 -1.000000
vn 1.000000 0.000000 0.000000
vn 1.000000 0.000000 0.000000
vn 1.000000 0.000000 0.000000
vn 1.000000 0.000000 0.000000
vn -1.000000 0.000000 -0.000000
vn -1.000000 0.000000 -0.000000
vn -1.000000 0.000000 -0.000000
vn -1.000000 0.000000 -0.000000
vn 0.000000 -1.000000 0.000000
vn 0.000000 -1.000000 0.000000
vn 0.000000 -1.000000 0.000000
vn 0.000000 -1.000000 0.000000
vn -1.000000 0.000000 -0.000000
vn -1.000000 0.000000 -0.000000
vn -1.000000 0.000000 -0.000000
vn -1.000000 0.000000 -0.000000
vn 0.000000 0.000000 -1.000000
vn 0.000000 0.000000 -1.000000
vn 0.000000 0.000000 -1.000000
vn 0.000000 0.000000 -1.000000
vn 1.000000 0.000000 0.000000
vn 1.000000 0.000000 0.000000
vn 1.000000 0.000000 0.000000
vn 1.000000 0.000000 0.000000
vn 0.000000 0.000000 1.000000
vn 0.000000 0.000000 1.000000
vn 0.000000 0.000000 1.000000
vn 0.000000 0.000000 1.000000
vn 0.000000 0.000000 -1.000000
vn 0.000000 0.000000 -1.000000
vn 0.000000 0.000000 -1.000000
vn 0.000000 0.000000 -1.000000
vn 0.000000 0.000000 -1.000000
vn 0.000000 0.000000 -1.000000
vn 0.000000 0.000000 -1.000000
vn 0.000000 0.000000 -1.000000
vn 0.000000 -1.000000 0.000000
vn 0.000000 -1.000000 0.000000
vn 0.000000 -1.000000 0.000000
vn 0.000000 -1.000000 0.000000
vn 1.000000 0.000000 0.000000
vn 1.000000 0.000000 0.000000
vn 1.000000 0.000000 0.000000
vn 1.000000 0.000000 0.000000
vn 0.000000 1.000000 0.000000
vn 0.000000 1.000000 0.000000
vn 0.000000 1.000000 0.000000
vn 0.000000 1.000000 0.000000
vn -1.000000 0.000000 0.000000
vn -1.000000 0.000000 0.000000
vn -1.000000 0.000000 0.000000
vn -1.000000 0.000000 0.000000
vn 0.000000 1.000000 0.000000
vn 0.000000 1.000000 0.000000
vn 0.000000 1.000000 0.000000
vn 0.000000 1.000000 0.000000
vn 0.000000 0.000000 1.000000
vn 0.000000 0.000000 1.000000
vn 0.000000 0.000000 1.000000
vn 0.000000 0.000000 1.000000
s off
g Side_Table
usemtl lambert5SG
f 1/1/1 2/2/2 3/3/3 4/4/4
f 5/5/5 6/6/6 7/7/7 8/8/8
f 9/9/9 10/10/10 11/11/11 12/12/12
f 13/13/13 11/14/14 4/15/15 3/16/16
f 14/17/17 5/5/18 8/8/19 15/18/20
f 16/19/21 15/20/22 8/21/23 7/7/24
f 13/22/25 17/23/26 18/24/27 19/25/28
f 12/12/29 19/25/30 18/24/31 9/9/32
f 16/19/33 7/7/34 6/6/35 20/26/36
f 1/27/37 10/28/38 17/29/39 2/30/40
f 20/26/41 6/6/42 5/31/43 14/32/44
f 16/33/45 20/34/46 1/35/47 4/36/48
f 19/25/49 12/12/50 11/14/51 13/13/52
f 3/3/53 2/2/54 17/23/55 13/22/56
f 9/9/57 18/24/58 17/29/59 10/28/60
f 10/10/61 1/35/62 20/34/63 14/37/64
f 14/37/65 15/38/66 11/11/67 10/10/68
f 11/11/69 15/38/70 16/33/71 4/36/72
f 21/39/73 22/40/74 23/41/75 24/42/76
f 25/43/77 26/44/78 27/45/79 28/46/80
f 22/40/81 21/39/82 25/47/83 28/48/84
f 23/41/85 22/40/86 29/49/87 30/50/88
f 22/51/89 28/46/90 31/52/91 29/53/92
f 26/44/93 25/43/94 32/54/95 33/55/96
f 25/43/97 21/56/98 34/57/99 32/54/100
f 34/58/101 35/59/102 30/50/103 29/49/104
f 32/54/105 31/52/106 36/60/107 33/55/108
f 29/49/109 31/61/110 32/62/111 34/58/112
f 31/52/113 28/46/114 27/45/115 36/60/116
f 36/60/117 27/45/118 23/41/119 30/50/120
f 34/58/121 21/39/122 24/42/123 35/59/124
f 35/63/125 24/64/126 26/44/127 33/55/128
f 37/65/129 38/66/130 39/67/131 40/68/132
f 41/69/133 42/70/134 38/66/135 37/65/136
f 42/71/137 43/72/138 39/67/139 38/66/140
f 43/73/141 44/74/142 40/75/143 39/76/144
f 44/74/145 41/69/146 37/77/147 40/78/148
f 42/70/149 41/69/150 45/79/151 46/80/152
f 47/81/153 48/82/154 49/83/155 50/84/156
f 51/85/157 52/86/158 53/87/159 54/88/160
f 50/89/161 52/86/162 51/85/163 47/90/164
f 49/83/165 55/91/166 56/92/167 50/84/168
f 50/84/169 56/92/170 57/93/171 52/94/172
f 54/88/173 58/95/174 59/96/175 51/85/176
f 51/97/177 59/98/178 60/99/179 47/81/180
f 60/99/181 56/92/182 55/91/183 61/100/184
f 59/96/185 58/95/186 62/101/187 57/102/188
f 56/103/189 60/104/190 59/96/191 57/102/192
f 57/102/193 62/101/194 53/87/195 52/86/196
f 62/105/197 55/91/198 49/83/199 53/106/200
f 60/99/201 61/100/202 48/82/203 47/81/204
f 61/100/205 58/95/206 54/88/207 48/82/208
f 63/107/209 64/108/210 65/109/211 66/110/212
f 46/80/213 67/111/214 43/112/215 42/70/216
f 45/79/217 63/107/218 66/110/219 46/80/220
f 46/113/221 66/110/222 65/109/223 67/114/224
f 67/115/225 65/116/226 64/117/227 68/118/228
f 68/118/229 64/119/230 63/120/231 45/79/232
f 44/74/233 43/73/234 67/115/235 68/118/236
f 41/69/237 44/74/238 68/118/239 45/79/240
